<svg xmlns="http://www.w3.org/2000/svg" xmlns:xlink="http://www.w3.org/1999/xlink" width="253.003" height="67" viewBox="0 0 253.003 67">
  <defs>
    <linearGradient id="linear-gradient" y1="0.499" x2="1" y2="0.499" gradientUnits="objectBoundingBox">
      <stop offset="0" stop-color="#e50019"/>
      <stop offset="1" stop-color="#ae0721"/>
    </linearGradient>
  </defs>
  <g id="Group_8" data-name="Group 8" transform="translate(-218 -410.485)">
    <g id="Group_4" data-name="Group 4" transform="translate(218 413.69)">
      <g id="Group_3" data-name="Group 3" transform="translate(0)">
        <g id="Group_1" data-name="Group 1">
          <path id="Path_1" data-name="Path 1" d="M290.956,436.707v27.067H278.381V436.707c0-7.079-4.081-9.245-8.911-9.245-3.415,0-8.661,2.082-8.745,10.827v25.485H248.149V436.707c0-7.079-4.164-9.245-8.828-9.245-3.831,0-8.828,2.082-8.828,12.076l-.083,24.235H218V417.968h12.409v4.164c3.165-2.832,8.328-5,12.076-5,7,0,11.576,2.332,14.741,6.246a19.4,19.4,0,0,1,14.741-6.246C285.127,417.135,290.956,424.8,290.956,436.707Z" transform="translate(-218 -417.135)" fill="#0091d4"/>
        </g>
        <g id="Group_2" data-name="Group 2" transform="translate(77.142 0.999)">
          <path id="Path_2" data-name="Path 2" d="M389.818,482l7.912-18.822-19.655-43.974h8.154a9.213,9.213,0,0,1,8.562,5.812l9.268,23.337,8.448-23.1a9.213,9.213,0,0,1,8.652-6.048h7.968L406.58,474.588A11.907,11.907,0,0,1,395.552,482Z" transform="translate(-378.075 -419.209)" fill="#0091d4"/>
        </g>
      </g>
    </g>
    <g id="Group_6" data-name="Group 6" transform="translate(442.936 413.684)">
      <g id="Group_5" data-name="Group 5" transform="translate(0 0)">
        <path id="Path_3" data-name="Path 3" d="M697.169,443.53v20.238H684.76V417.962h12.409v6.08c4.664-6.163,12.409-7,15.657-6.912v12.16C709.828,429.039,697.169,429.622,697.169,443.53Z" transform="translate(-684.76 -417.124)" fill="#00378d"/>
      </g>
    </g>
    <g id="Group_7" data-name="Group 7" transform="translate(379.739 414.649)">
      <path id="Path_4" data-name="Path 4" d="M553.769,419.168l-.043.125-.106-.169A1.34,1.34,0,0,1,553.769,419.168Z" transform="translate(-553.62 -419.125)" fill="url(#linear-gradient)"/>
    </g>
    <path id="Path_5" data-name="Path 5" d="M572.619,414.523v45.806H560.291v-3.041a23.425,23.425,0,0,1-12.231,3.422,27.982,27.982,0,0,1-5.9-.655l-.732,2.819-6.106-9.956,10.766-8.033-1.041,4.024a16.582,16.582,0,0,0,3.017.3,12.089,12.089,0,1,0-9.1-20.028c-2.964,3.393-2.67,8.082-3.465,12.24A24,24,0,0,1,512.38,460.71a23.592,23.592,0,0,1,0-47.184,27.23,27.23,0,0,1,4.231.342l.877-3.383,2.549,4.164.106.169,3.45,5.629-10.761,8.033.877-3.388c-.448-.039-.9-.063-1.33-.063a12.089,12.089,0,0,0,0,24.177,11.747,11.747,0,0,0,9.739-5.132c2.5-3.773,2-8.086,2.964-12.294a23.584,23.584,0,0,1,35.208-14.833v-2.424Z" transform="translate(-140.299 0)" fill="#00378d"/>
  </g>
</svg>
