<?xml version="1.0" encoding="UTF-8"?>
<svg width="18px" height="17px" viewBox="0 0 18 17" version="1.1" xmlns="http://www.w3.org/2000/svg" xmlns:xlink="http://www.w3.org/1999/xlink">
    <!-- Generator: Sketch 50.2 (55047) - http://www.bohemiancoding.com/sketch -->
    <title>Group 3</title>
    <desc>Created with Sketch.</desc>
    <defs>
        <path d="M13.5739962,8.08398079 C13.9329092,8.7969193 14.6295874,9.2930322 15.4366042,9.40796687 L18.5515756,9.85207404 C18.7192404,9.87591923 18.7912786,10.093307 18.6623432,10.216569 L16.4083048,12.3699574 C15.8280514,12.9255852 15.5644002,13.7214746 15.7009279,14.5012653 L16.2329924,17.5424917 C16.263771,17.7185457 16.0869764,17.8444341 15.9409279,17.7691767 L13.1558667,16.3333333 C12.4324633,15.9607579 11.5678818,15.9607579 10.844898,16.3331171 L8.05872545,17.7692422 C7.91295064,17.8443584 7.7365467,17.7187024 7.76737524,17.542363 L8.29944085,14.5011303 C8.43602198,13.7210345 8.17198786,12.9248397 7.59168823,12.3701606 L5.33782783,10.2164026 C5.20886414,10.0932012 5.28089169,9.87594953 5.44836995,9.85213093 L8.56337827,9.40793806 C9.37049384,9.29313829 10.0673414,8.79710706 10.4263226,8.08403309 L11.8192675,5.31674062 C11.8956259,5.16494902 12.1045652,5.16492871 12.1811508,5.316886 L13.5739962,8.08398079 Z M14.2203383,4.34957149 C13.3140608,2.55006803 10.6852425,2.55006803 9.7797809,4.35002039 L8.38698436,7.11701805 C8.3562463,7.17807558 8.29845578,7.21921213 8.2338538,7.22840077 L5.11886324,7.67259112 C3.0905483,7.96105601 2.28495097,10.3909223 3.74552331,11.7862342 L5.99915905,13.9397775 C6.05033632,13.9886953 6.07426826,14.0608621 6.06177325,14.1322285 L5.52966149,17.173725 C5.18543907,19.1426788 7.30438625,20.6520477 9.12319583,19.7148338 L11.90916,18.2788161 C11.9664626,18.2493035 12.0338826,18.2493035 12.0915206,18.2789889 L14.8763733,19.714725 C16.6953316,20.6520155 18.8149174,19.1427435 18.4707062,17.1738537 L17.9385955,14.1323636 C17.926053,14.0607255 17.9500897,13.9881655 18.0014561,13.9389789 L20.2548338,11.7862227 C21.7147364,10.3905588 20.9096373,7.96103332 18.8810531,7.67253005 L15.7663083,7.22845514 C15.701961,7.21929084 15.6441074,7.1780926 15.6133345,7.11696575 L14.2204422,4.34977789 L13.2007599,4.83325926 L14.2203383,4.34957149 Z M13.2007599,4.83325926 L12.1810776,5.31674062 C12.1811611,5.31690634 13.2007599,4.83325926 13.2007599,4.83325926 Z" id="path-1"></path>
    </defs>
    <g id="Page-1" stroke="none" stroke-width="1" fill="none" fill-rule="evenodd">
        <g id="Landing-QIWI-Bonus-All-Shops-Dropdown" transform="translate(-211.000000, -1023.000000)">
            <g id="Group" transform="translate(130.000000, 148.000000)">
                <g id="row-03" transform="translate(0.000000, 660.000000)">
                    <g id="01">
                        <g id="Btn-Favourite" transform="translate(66.000000, 200.000000)">
                            <g id="Group-3" transform="translate(12.000000, 12.000000)">
                                <rect id="Rectangle-3" x="0" y="0" width="24" height="24"></rect>
                                <mask id="mask-2" fill="white">
                                    <use xlink:href="#path-1"></use>
                                </mask>
                                <use id="Star-icon" fill="#000000" fill-rule="nonzero" xlink:href="#path-1"></use>
                            </g>
                        </g>
                    </g>
                </g>
            </g>
        </g>
    </g>
</svg>